<svg width="500" height="580" viewBox="0 0 500 580" xmlns="http://www.w3.org/2000/svg">
  <defs>
    <linearGradient id="bgpress" x1="0" y1="0" x2="0" y2="1">
      <stop offset="0%" stop-color="#1A2332"/>
      <stop offset="100%" stop-color="#111820"/>
    </linearGradient>
    <clipPath id="hexp">
      <polygon points="250,30 455,145 455,375 250,490 45,375 45,145"/>
    </clipPath>
  </defs>

  <polygon points="250,30 455,145 455,375 250,490 45,375 45,145" fill="url(#bgpress)"/>

  <g clip-path="url(#hexp)">

    <!-- Toes row -->
    <rect x="229" y="148" width="34" height="34" rx="6" fill="#C62828" opacity="0.95"/>
    <rect x="268" y="152" width="30" height="30" rx="5" fill="#E53935" opacity="0.9"/>
    <rect x="302" y="154" width="28" height="28" rx="5" fill="#EF6C00" opacity="0.88"/>
    <rect x="334" y="156" width="26" height="26" rx="5" fill="#FB8C00" opacity="0.85"/>
    <rect x="363" y="160" width="22" height="22" rx="4" fill="#FDD835" opacity="0.8"/>

    <!-- Metatarsal heads -->
    <rect x="190" y="192" width="34" height="34" rx="6" fill="#E53935" opacity="0.92"/>
    <rect x="229" y="190" width="34" height="34" rx="6" fill="#C62828" opacity="0.97"/>
    <rect x="268" y="191" width="34" height="34" rx="6" fill="#C62828" opacity="0.95"/>
    <rect x="307" y="193" width="34" height="34" rx="6" fill="#E53935" opacity="0.9"/>
    <rect x="346" y="195" width="34" height="34" rx="6" fill="#EF6C00" opacity="0.88"/>

    <!-- Metatarsals -->
    <rect x="180" y="231" width="34" height="34" rx="6" fill="#EF6C00" opacity="0.88"/>
    <rect x="219" y="230" width="34" height="34" rx="6" fill="#E53935" opacity="0.92"/>
    <rect x="258" y="230" width="34" height="34" rx="6" fill="#C62828" opacity="0.97"/>
    <rect x="297" y="231" width="34" height="34" rx="6" fill="#E53935" opacity="0.92"/>
    <rect x="336" y="233" width="34" height="34" rx="6" fill="#FB8C00" opacity="0.85"/>

    <!-- Arch region -->
    <rect x="175" y="270" width="34" height="34" rx="6" fill="#FB8C00" opacity="0.85"/>
    <rect x="214" y="270" width="34" height="34" rx="6" fill="#FDD835" opacity="0.82"/>
    <rect x="253" y="270" width="34" height="34" rx="6" fill="#26C6DA" opacity="0.72"/>
    <rect x="292" y="271" width="34" height="34" rx="6" fill="#FDD835" opacity="0.82"/>
    <rect x="331" y="272" width="34" height="34" rx="6" fill="#FB8C00" opacity="0.85"/>

    <!-- Midfoot arch -->
    <rect x="175" y="309" width="34" height="34" rx="6" fill="#FB8C00" opacity="0.82"/>
    <rect x="214" y="309" width="34" height="34" rx="6" fill="#26C6DA" opacity="0.65"/>
    <rect x="292" y="310" width="34" height="34" rx="6" fill="#26C6DA" opacity="0.65"/>
    <rect x="331" y="311" width="34" height="34" rx="6" fill="#FDD835" opacity="0.8"/>

    <!-- Midfoot -->
    <rect x="180" y="348" width="34" height="34" rx="6" fill="#EF6C00" opacity="0.85"/>
    <rect x="214" y="348" width="34" height="34" rx="6" fill="#00897B" opacity="0.7"/>
    <rect x="292" y="349" width="34" height="34" rx="6" fill="#00897B" opacity="0.7"/>
    <rect x="326" y="350" width="34" height="34" rx="6" fill="#EF6C00" opacity="0.82"/>

    <!-- Heel approach -->
    <rect x="190" y="387" width="34" height="34" rx="6" fill="#E53935" opacity="0.9"/>
    <rect x="224" y="387" width="34" height="34" rx="6" fill="#EF6C00" opacity="0.85"/>
    <rect x="258" y="387" width="34" height="34" rx="6" fill="#00695C" opacity="0.72"/>
    <rect x="292" y="387" width="34" height="34" rx="6" fill="#EF6C00" opacity="0.85"/>
    <rect x="326" y="388" width="34" height="34" rx="6" fill="#E53935" opacity="0.9"/>

    <!-- Heel -->
    <rect x="200" y="426" width="34" height="34" rx="6" fill="#C62828" opacity="0.95"/>
    <rect x="234" y="425" width="38" height="38" rx="7" fill="#C62828" opacity="0.98"/>
    <rect x="272" y="425" width="38" height="38" rx="7" fill="#C62828" opacity="0.98"/>
    <rect x="310" y="426" width="34" height="34" rx="6" fill="#C62828" opacity="0.95"/>

    <!-- Colour scale bar -->
    <rect x="408" y="175" width="14" height="14" rx="3" fill="#C62828" opacity="0.95"/>
    <rect x="408" y="193" width="14" height="14" rx="3" fill="#E53935" opacity="0.92"/>
    <rect x="408" y="211" width="14" height="14" rx="3" fill="#EF6C00" opacity="0.88"/>
    <rect x="408" y="229" width="14" height="14" rx="3" fill="#FB8C00" opacity="0.85"/>
    <rect x="408" y="247" width="14" height="14" rx="3" fill="#FDD835" opacity="0.85"/>
    <rect x="408" y="265" width="14" height="14" rx="3" fill="#26C6DA" opacity="0.75"/>
    <rect x="408" y="283" width="14" height="14" rx="3" fill="#00897B" opacity="0.75"/>
    <rect x="408" y="301" width="14" height="14" rx="3" fill="#00695C" opacity="0.75"/>
    <text font-family="monospace" font-size="7" fill="#aaaaaa" opacity="0.7" x="426" y="185">high</text>
    <text font-family="monospace" font-size="7" fill="#aaaaaa" opacity="0.5" x="426" y="313">low</text>
    <line x1="424" y1="175" x2="424" y2="314" stroke="#555" stroke-width="0.6" opacity="0.5"/>
    <line x1="421" y1="175" x2="424" y2="175" stroke="#555" stroke-width="0.8" opacity="0.5"/>
    <line x1="421" y1="314" x2="424" y2="314" stroke="#555" stroke-width="0.8" opacity="0.5"/>
    <text font-family="monospace" font-size="7" fill="#aaaaaa" opacity="0.55"
      text-anchor="middle" x="415" y="330" transform="rotate(90 415 330)">kPa</text>

    <!-- Ghost foot outline -->
    <path d="M 230,148
             Q 220,140 200,145
             Q 170,155 163,200
             Q 155,260 158,320
             Q 160,370 175,400
             Q 185,440 210,455
             Q 240,468 290,468
             Q 340,465 360,445
             Q 378,425 375,395
             Q 372,365 358,340
             Q 348,310 348,270
             Q 350,230 370,200
             Q 380,175 374,162
             Q 365,150 350,155
             Q 335,158 330,168
             Q 320,158 305,155
             Q 290,153 285,162
             Q 272,152 258,152
             Q 244,150 238,157
             Q 235,150 230,148 Z"
      fill="none" stroke="#00897B" stroke-width="1.2" opacity="0.2" stroke-dasharray="6 4"/>

    <!-- Sensor dots -->
    <circle cx="112" cy="175" r="2" fill="#00897B" opacity="0.35"/>
    <circle cx="112" cy="214" r="2" fill="#00897B" opacity="0.32"/>
    <circle cx="112" cy="253" r="2" fill="#00897B" opacity="0.3"/>
    <circle cx="112" cy="292" r="2" fill="#00897B" opacity="0.3"/>

  </g>

  <!-- Hex border -->
  <polygon points="250,30 455,145 455,375 250,490 45,375 45,145"
    fill="none" stroke="#00897B" stroke-width="11" stroke-linejoin="round"/>
  <polygon points="250,44 441,153 441,367 250,476 59,367 59,153"
    fill="none" stroke="#4DB6AC" stroke-width="1.5" stroke-linejoin="round" opacity="0.5"/>

  <!-- Package name -->
  <text font-family="monospace" font-weight="700" font-size="28"
    fill="#80CBC4" text-anchor="middle" x="250" y="545" letter-spacing="1">pressR</text>
</svg>
